<?xml version="1.0"?>
<svg width="448" height="512" xmlns="http://www.w3.org/2000/svg" xmlns:svg="http://www.w3.org/2000/svg">
 <!--! Font Awesome Pro 6.4.2 by @fontawesome - https://fontawesome.com License - https://fontawesome.com/license (Commercial License) Copyright 2023 Fonticons, Inc. -->

 <g class="layer">
  <title>Layer 1</title>
  <path d="m32,192l0,-144c0,-8.8 7.2,-16 16,-16l64,0c8.8,0 16,7.2 16,16l0,40c0,4.4 3.6,8 8,8l32,0c4.4,0 8,-3.6 8,-8l0,-40c0,-8.8 7.2,-16 16,-16l64,0c8.8,0 16,7.2 16,16l0,40c0,4.4 3.6,8 8,8l32,0c4.4,0 8,-3.6 8,-8l0,-40c0,-8.8 7.2,-16 16,-16l64,0c8.8,0 16,7.2 16,16l0,144c0,10.1 -4.7,19.6 -12.8,25.6l-51.2,38.4l16,144l-288,0l16,-144l-51.2,-38.4c-8.1,-6 -12.8,-15.5 -12.8,-25.6zm176,96l32,0c8.8,0 16,-7.2 16,-16l0,-48c0,-17.7 -14.3,-32 -32,-32s-32,14.3 -32,32l0,48c0,8.8 7.2,16 16,16zm-185.4,185.4l41.4,-41.4l320,0l41.4,41.4c4.2,4.2 6.6,10 6.6,16c0,12.5 -10.1,22.6 -22.6,22.6l-370.8,0c-12.5,0 -22.6,-10.1 -22.6,-22.6c0,-6 2.4,-11.8 6.6,-16z" fill="#ffffff" id="svg_1" stroke="#000000" stroke-width="20"/>
 </g>
</svg>